<svg xmlns="http://www.w3.org/2000/svg" width="40" height="40" viewBox="0 0 40 40" fill="none"><path d="M27 36C27 38.2091 25.2091 40 23 40L17 40C14.7909 40 13 38.2091 13 36L13 17C13 14.7909 14.7909 13 17 13L36 13C38.2091 13 40 14.7909 40 17L40 23C40 25.2091 38.2091 27 36 27L31 27C28.7909 27 27 28.7909 27 31L27 36Z" fill="#28BD86"></path><path d="M13 4C13 1.79086 14.7909 0 17 0H23C25.2091 0 27 1.79086 27 4V23C27 25.2091 25.2091 27 23 27H4C1.79086 27 0 25.2091 0 23V17C0 14.7909 1.79086 13 4 13H9C11.2091 13 13 11.2091 13 9V4Z" fill="#1B5FC1" style="mix-blend-mode:multiply"></path></svg>